HIERARCHY
ROOT pelvis
{
  OFFSET 0 0 0
  CHANNELS 6 Xposition Yposition Zposition Zrotation Xrotation Yrotation
  JOINT pelvis_right_femur
  {
    OFFSET -11.43119 -3.542788 0.2090856
    CHANNELS 3 Zrotation Xrotation Yrotation
    JOINT right_femur_tibia
    {
      OFFSET -1.028693 -40.73281 5
      CHANNELS 3 Zrotation Xrotation Yrotation
      JOINT right_tibia_foot
      {
        OFFSET -0.5013517 -42.05707 -5
        CHANNELS 3 Zrotation Xrotation Yrotation
        End Site
        {
          OFFSET 0 -5 10
        }
      }
    }
  }
  JOINT pelvis_left_femur
  {
    OFFSET 11.43119 -3.542788 0.2090856
    CHANNELS 3 Zrotation Xrotation Yrotation
    JOINT left_femur_tibia
    {
      OFFSET 1.028693 -40.73281 5
      CHANNELS 3 Zrotation Xrotation Yrotation
      JOINT left_tibia_foot
      {
        OFFSET 0.3200228 -42.98253 -5
        CHANNELS 3 Zrotation Xrotation Yrotation
        End Site
        {
          OFFSET 0 -5 10
        }
      }
    }
  }
  JOINT pelvis_spine1
  {
    OFFSET 0 8.64413 -3.209807
    CHANNELS 3 Zrotation Xrotation Yrotation
    JOINT spine1
    {
      OFFSET 0 29.53957 -1.762685
      CHANNELS 3 Zrotation Xrotation Yrotation
      JOINT spine2
      {
        OFFSET 0 16.36153 -0.1422377
        CHANNELS 3 Zrotation Xrotation Yrotation
        JOINT neck
        {
          OFFSET 0 11.60093 5
          CHANNELS 3 Zrotation Xrotation Yrotation
          End Site
          {
            OFFSET 0 20 0
          }
        }
      }
      JOINT right_manubrium
      {
        OFFSET -4.671311 15.89868 4
        CHANNELS 3 Zrotation Xrotation Yrotation
        JOINT right_clavicle
        {
          OFFSET -13.601 1.573642 -2.74176
          CHANNELS 3 Zrotation Xrotation Yrotation
          JOINT right_humerus
          {
            OFFSET -0.06331682 -27.72702 2.252146
            CHANNELS 3 Zrotation Xrotation Yrotation
            JOINT right_radius
            {
              OFFSET -0.5696302 -23.92083 0.4042105
              CHANNELS 3 Zrotation Xrotation Yrotation
              End Site
              {
                OFFSET 0 -15 0
              }
            }
          }
        }
      }
      JOINT left_manubrium
      {
        OFFSET 4.671311 15.89868 4
        CHANNELS 3 Zrotation Xrotation Yrotation
        JOINT left_clavicle
        {
          OFFSET 13.601 1.573642 -2.74176
          CHANNELS 3 Zrotation Xrotation Yrotation
          JOINT left_humerus
          {
            OFFSET 0.000209614 -29.01858 1.101395
            CHANNELS 3 Zrotation Xrotation Yrotation
            JOINT left_radius
            {
              OFFSET -0.2288314 -24.59216 1.790347
              CHANNELS 3 Zrotation Xrotation Yrotation
              End Site
              {
                OFFSET 0 -15 0
              }
            }
          }
        }
      }
    }
  }
}
MOTION
Frames: 13
Frame Time: 0.0416666666667
0 48.05195 0 -3.684026 -22.39545 -1.550468 -49.20214 -58.52878 -37.4063 -180 81.38523 -180 10.73687 1.796555 2.406313 63.21623 -48.89468 50.76086 -180 72.24237 -180 -6.541256 -7.447771 -13.70361 1.117618 21.5964 1.771236 6.404942 15.47866 -9.132546 -13.58982 7.903067 7.521511 5.750466 -31.51662 -1.078678 17.62469 -10.36496 25.72271 -65.49656 -30.27924 20.3379 0 -66.43734 0 6.841441 -13.3056 25.58973 -28.1458 -33.60081 -3.566183 50.20539 -23.457 -30.23257 0 -71.02584 0 -16.74202 16.60211 -38.77058
-0.1364544 47.93639 -0.04736557 -3.348809 -22.2946 -1.597536 -49.63152 -58.93385 -37.63509 -180 81.22963 -180 10.76562 1.790884 2.364109 63.24147 -48.88417 50.97037 -180 72.26605 -180 -6.559612 -7.412859 -13.71274 0.3626779 21.57783 2.083017 6.556632 15.46365 -9.147654 -13.56399 7.700187 7.568811 5.729073 -31.4693 -1.152417 17.69809 -10.49696 25.36871 -65.35115 -29.13676 19.20676 0 -66.87387 0 5.171973 -15.00144 24.91654 -27.91449 -33.68336 -3.54726 50.29786 -23.48187 -30.11906 0 -71.23782 0 -16.74267 16.60851 -38.80771
-0.1782043 47.9306 -0.1220444 -3.279652 -22.24144 -1.57689 -49.80888 -59.03544 -37.80376 -180 81.22799 -180 10.79158 1.821752 2.357359 63.20519 -49.00885 50.98448 -180 72.32255 -180 -6.560975 -7.384575 -13.652 0.005159853 21.72565 2.248425 7.089951 15.53061 -9.354442 -13.80953 7.399688 7.678869 5.631532 -31.57002 -1.29364 18.42893 -11.16874 24.4988 -65.40538 -27.17529 16.75922 0 -67.31909 0 2.650723 -17.25723 23.79295 -27.88856 -33.81982 -3.412538 50.30868 -23.48865 -30.05323 0 -71.56203 0 -16.74186 16.56139 -38.8105
-0.1995194 47.92632 -0.1920426 -3.414465 -22.25975 -1.519828 -49.70696 -58.91285 -37.86863 -180 81.33938 -180 10.80433 1.876198 2.413452 63.26025 -49.22291 50.87654 -180 72.33659 -180 -6.550064 -7.383914 -13.53551 -0.07061224 22.01458 2.221443 7.868602 15.56456 -9.704774 -14.41148 7.119197 7.908529 5.394088 -31.77273 -1.437379 19.87446 -12.67436 23.20201 -65.69492 -24.625 12.88215 0 -67.45537 0 -0.8233542 -19.83941 22.08213 -27.99736 -34.06279 -3.052478 50.34218 -23.44111 -29.92618 0 -72.01035 0 -16.72683 16.45945 -38.78032
-0.06030027 48.0284 -0.2321008 -3.816923 -22.31231 -1.505307 -49.30226 -58.53955 -37.82318 -180 81.59892 -180 10.80889 1.944944 2.491962 63.30426 -49.44385 50.66635 -180 72.30795 -180 -6.540952 -7.418619 -13.38415 0.3622787 22.42757 1.835022 8.707718 15.55657 -10.15643 -15.21445 6.883322 8.260621 5.046523 -32.09529 -1.465294 21.69804 -15.08429 21.88615 -66.23472 -21.85865 7.962837 0 -66.64627 0 -5.029996 -22.31605 19.72773 -28.25992 -34.30826 -2.530332 50.43475 -23.22961 -29.72293 0 -72.55263 0 -16.69948 16.30744 -38.72115
0.02059665 48.06392 -0.2085572 -4.067458 -22.28485 -1.632883 -49.15464 -58.36009 -37.94438 -180 81.76113 -180 10.79927 1.992614 2.639011 63.41264 -49.50055 50.56628 -180 72.23632 -180 -6.556041 -7.483416 -13.2526 0.655425 22.81263 1.417605 9.306261 15.36188 -10.46933 -15.99887 6.750994 8.66282 4.66713 -32.37382 -1.373704 23.4702 -18.09543 21.04369 -66.83825 -19.30907 2.792889 0 -64.45636 0 -9.439797 -24.21233 16.84184 -28.3855 -34.50649 -1.924413 50.69445 -22.88537 -29.45817 0 -73.19955 0 -16.68821 16.10539 -38.63782
0.09441342 48.14211 -0.1392076 -4.218956 -22.21179 -1.876721 -49.14505 -58.27117 -38.15669 -180 81.8911 -180 10.76962 2.04753 2.859641 63.45845 -49.38046 50.50813 -180 72.1798 -180 -6.593274 -7.562658 -13.14048 0.9729717 23.03162 0.9925328 9.574177 15.19734 -10.62181 -16.57508 6.703141 9.034908 4.365354 -32.61246 -1.196931 24.80957 -21.27385 20.91884 -67.54978 -17.22093 -1.93834 0 -60.90279 0 -13.3531 -25.27929 13.79341 -28.49921 -34.61581 -1.445535 51.08019 -22.41702 -29.19185 0 -73.81333 0 -16.70725 15.86517 -38.52428
0.1305813 48.21526 -0.0312306 -4.27199 -22.10178 -2.167905 -49.37183 -58.23096 -38.5496 -180 81.94386 -180 10.72642 2.105329 3.153154 63.4716 -49.15879 50.46485 -180 72.13501 -180 -6.640465 -7.644845 -13.03916 1.318686 23.14634 0.6884297 9.519496 15.03537 -10.60963 -16.92493 6.654192 9.29183 4.161324 -32.85417 -1.07116 25.51823 -24.33024 21.407 -68.49666 -15.57737 -5.90415 0 -56.08728 0 -16.34409 -25.54121 10.94122 -28.60686 -34.67346 -1.134292 51.50083 -21.93382 -28.99589 0 -74.35673 0 -16.77031 15.5858 -38.37126
0.1118243 48.23442 0.08512144 -4.204304 -22.01159 -2.429521 -49.85393 -58.22964 -39.14515 -180 81.89551 -180 10.6775 2.160756 3.484765 63.44328 -48.95602 50.43025 -180 72.07452 -180 -6.697036 -7.713631 -12.9348 1.723624 23.23143 0.5648514 9.213463 14.90023 -10.43008 -17.15738 6.491272 9.402964 3.984907 -33.14455 -1.092082 25.61238 -27.09153 22.36363 -69.70365 -14.25388 -9.023865 0 -50.19963 0 -18.22345 -25.11649 8.471278 -28.7214 -34.7243 -1.059159 51.91999 -21.52176 -28.90135 0 -74.78488 0 -16.8869 15.25612 -38.17376
0.05221866 48.20826 0.1630449 -4.02725 -21.92671 -2.652395 -50.54698 -58.28847 -39.89276 -180 81.78527 -180 10.62885 2.218014 3.818073 63.3308 -48.85176 50.36621 -180 72.02426 -180 -6.753552 -7.747425 -12.7963 2.158588 23.32043 0.5923825 8.74729 14.78543 -10.16602 -17.38057 6.194441 9.415933 3.780688 -33.46427 -1.247139 25.20602 -29.45645 23.51549 -71.06522 -13.20449 -11.2866 0 -43.90086 0 -18.99848 -24.28719 6.494572 -28.80778 -34.81033 -1.139892 52.33134 -21.19919 -28.86447 0 -75.05546 0 -17.04446 14.88042 -37.91911
-0.05827819 48.18469 0.1819482 -3.769843 -21.82132 -2.810413 -51.28213 -58.41375 -40.64685 -180 81.68835 -180 10.58676 2.271262 4.097797 63.13586 -48.84694 50.27077 -180 72.05208 -180 -6.804804 -7.748447 -12.60839 2.591987 23.38182 0.7233848 8.197295 14.74426 -9.901877 -17.62672 5.804088 9.377876 3.535807 -33.7948 -1.487068 24.39865 -31.2582 24.65602 -72.34213 -12.46981 -12.58849 0 -37.85124 0 -18.73904 -23.3021 5.047938 -28.89829 -34.95132 -1.328156 52.6865 -20.95537 -28.84143 0 -75.16469 0 -17.21625 14.46405 -37.60059
-0.1887663 48.18736 0.1525309 -3.431331 -21.68568 -2.907768 -51.99937 -58.60896 -41.31262 -180 81.62547 -180 10.55171 2.318088 4.308767 62.80917 -48.92511 50.12839 -180 72.17308 -180 -6.860119 -7.736571 -12.37239 2.98038 23.36861 0.8827847 7.646046 14.81225 -9.669405 -17.88597 5.375853 9.324559 3.261634 -34.11349 -1.754205 23.3697 -32.41063 25.67416 -73.30493 -12.05487 -12.97801 0 -32.48778 0 -17.67585 -22.33825 4.055545 -29.05419 -35.136 -1.609621 52.96994 -20.75063 -28.79619 0 -75.09182 0 -17.3826 14.01728 -37.21058
-0.2998217 48.20529 0.09880141 -3.063446 -21.52346 -2.991042 -52.64855 -58.90267 -41.80322 -180 81.58163 -180 10.52569 2.359563 4.433948 62.39611 -49.0563 49.97829 -180 72.30799 -180 -6.91833 -7.708995 -12.11436 3.229183 23.26942 1.056706 7.210199 14.89238 -9.457432 -18.09384 5.010876 9.307646 3.011867 -34.35466 -1.939794 22.43636 -33.20439 26.61401 -74.01892 -11.95835 -12.89789 0 -28.0424 0 -16.37688 -21.48515 3.363803 -29.24783 -35.32425 -1.88077 53.17744 -20.55096 -28.74129 0 -74.90547 0 -17.53475 13.53757 -36.74082
